# xmcd
#
# Track frame offsets: 
#        300
#        11859
#        24781
#        39132
#        54239
#        65790
#        77078
#        93509
#        106218
#        119873
#        130740
#        141917
#        152437
#        167054
#        182541
#        192362
#        206901
#
# Disc length: 2979 seconds
#
# Revision: 0
# Processed by: cddbd v1.5.2PL0 Copyright (c) Steve Scherf et al.
# Submitted via: ExactAudioCopy v0.99pb5
#
DISCID=e60b9f11
DTITLE=Collections - Best Japan Songs Collections
DYEAR=1974
DGENRE=Instrumental
TTITLE0=Who if... ( Кто если ... )
TTITLE1=Melody in summer night ( Мелодия в летнюю ночь )
TTITLE2=In inspiration search ( В поиске вдохновения )
TTITLE3=Oriental cherry flowers ( Цветы сакуры ) 
TTITLE4=Songs about a cherry ( Песни около вишни )
TTITLE5=Magic music of night ( Волшебная музыка ночи )
TTITLE6=Morning and evening ( Утро и вечер )
TTITLE7=Let's sing friends ( Споем же друзья )
TTITLE8=Sea song ( Песня моря )
TTITLE9=Flight of a petrel ( Полет буревестника )
TTITLE10=Let's dance together ( Потанцуем вместе )
TTITLE11=It is a pity there is no you nearby ( Жаль нет тебя рядом )
TTITLE12=Sing to me better ( Напой мне лучше )
TTITLE13=Morning waltz ( Утренний вальс )
TTITLE14=Do not stop the child ( Не останавливайся детка )
TTITLE15=About what you sing the girlfriend ( О чем поешь подруга )
TTITLE16=Give we will make friends ( Давай подружимся )
EXTD=Домашняя Звукозапись ( Music Records )
EXTT0=
EXTT1=
EXTT2=
EXTT3=
EXTT4=
EXTT5=
EXTT6=
EXTT7=
EXTT8=
EXTT9=
EXTT10=
EXTT11=
EXTT12=
EXTT13=
EXTT14=
EXTT15=
EXTT16=
PLAYORDER=
